<svg width="61" height="37" viewBox="0 0 61 37" fill="none" xmlns="http://www.w3.org/2000/svg">
<path d="M23.8686 29.564H29V36.2537C27.4618 36.7611 25.8526 37.0121 24.2352 36.997C23.0563 37.0317 21.8874 36.7687 20.8338 36.2314C19.9104 35.7234 19.169 34.9325 18.7153 33.9718C18.2076 32.8207 17.9645 31.5676 18.0042 30.3073C17.9748 29.0732 18.2521 27.8514 18.8106 26.7544C19.3589 25.7578 20.1886 24.9502 21.193 24.4353C22.2339 23.8927 23.832 23.6177 25.3347 23.6177C26.0458 23.6177 26.4197 23.692 27.1087 23.8407C27.7905 23.9819 28.4355 24.1157 29 24.361L28.2669 26.5909C27.8564 26.3827 27.1674 26.2489 26.6322 26.1151C26.0979 25.9576 25.5463 25.8677 24.9902 25.8476C24.1692 25.8476 23.4508 26.1003 22.835 26.4645C22.2284 26.8302 21.7376 27.364 21.4202 28.0031C21.0795 28.7209 20.9136 29.5111 20.9364 30.3073C20.9206 31.0879 21.0397 31.8652 21.2883 32.6041C21.5229 33.2582 21.904 33.7785 22.4098 34.1502C22.923 34.5218 23.5974 34.7671 24.4257 34.7671C24.697 34.7671 25.0122 34.782 25.2174 34.7671C25.4374 34.7448 25.7013 34.7671 26.0678 34.5144V31.7939H23.8686V29.564Z" fill="#7C6A46"/>
<path d="M39.7222 34.1111H34.2778L33.1111 37H30L35.4444 24H38.5556L44 37H40.8889L39.7222 34.1111ZM35.0556 31.9444H38.9444L37 26.1667L35.0556 31.9444Z" fill="#7C6A46"/>
<path d="M51.85 31H61L30.5 0L0 31H9.15L30.5 9.26555L51.85 31ZM15.25 6.23445V0H6.1V15.5L15.25 6.23445Z" fill="#7C6A46"/>
</svg>
